<svg width="1000" height="1000" viewBox="0 0 1000 1000" xmlns="http://www.w3.org/2000/svg"><title>ineat-404-logo</title><path d="M542.391 845.87V589.348h-83.043V845.87c-25 12.39-41.522 41.521-41.522 70.652 0 45.652 37.391 83.043 83.044 83.043 45.652 0 83.043-37.391 83.043-83.043 0-28.913-16.522-58.044-41.522-70.652z"/><path d="M916.522 708.696c-29.13 0-58.261 16.521-70.652 41.521H708.696v-83.043h33.26c112.174 0 211.957-83.044 216.087-195.435 4.13-108.043-70.652-195.435-170.434-216.087C770.869 114.348 650.435 1.957 500.652 1.957h-25c-149.565 12.39-266.087 149.565-266.087 303.478 0 12.391-12.391 29.13-29.13 33.26C97.39 351.088 35 430.218 43.26 517.392c8.26 87.392 87.391 149.566 174.565 149.566h74.783V750h-136.74C143.262 725.435 114.13 708.696 85 708.696c-45.652 0-83.043 37.391-83.043 83.043 0 45.652 37.39 83.044 83.043 83.044 29.13 0 58.26-16.522 70.652-41.522h220.435V589.565H218.043c-45.652 0-87.39-38.695-91.521-80.217-4.13-41.522 25-83.044 70.652-91.522 54.13-8.26 95.652-58.26 95.652-112.174 0-112.174 83.044-207.826 191.304-216.087h16.522c103.913 0 191.305 78.913 207.826 182.826l8.261 58.261L775 343.043c62.391 12.392 103.913 66.522 99.783 128.914-4.13 66.521-62.392 116.304-133.044 116.304H625.435v249.348H845.87c12.39 25 41.521 41.521 70.652 41.521 45.652 0 83.043-37.39 83.043-83.043.218-50-37.174-87.391-83.043-87.391z"/><path d="M463.043 428.043h-21.739c-1.521 0-2.608-.434-3.478-1.086-.87-.653-1.522-1.522-2.174-2.392l-18.913-33.043c-.435.87-.652 1.739-1.087 2.391l-17.609 30.652c-.652.87-1.304 1.74-2.173 2.392a5.34 5.34 0 0 1-3.261 1.086h-20.435l30.435-48.478-29.13-45.652h21.956c1.522 0 2.391.217 3.043.652a6.616 6.616 0 0 1 1.74 1.74l18.695 31.738c.217-.652.435-1.086.652-1.521.218-.435.652-1.087.87-1.522l16.522-28.26c.652-.87 1.304-1.74 1.956-2.175.652-.435 1.522-.652 2.391-.652h20.87l-29.565 44.783 30.434 49.347zM634.13 428.043h-21.956c-1.522 0-2.609-.434-3.478-1.086-.87-.653-1.522-1.522-2.174-2.392l-18.913-33.043c-.435.87-.652 1.739-1.087 2.391l-17.609 30.652c-.652.87-1.304 1.74-2.174 2.392a5.34 5.34 0 0 1-3.26 1.086h-20.436l30.435-48.478-29.13-45.652h21.956c1.522 0 2.392.217 3.044.652a6.616 6.616 0 0 1 1.739 1.74l18.696 31.738c.217-.652.434-1.086.652-1.521.217-.435.652-1.087.87-1.522l16.521-28.26c.652-.87 1.304-1.74 1.957-2.175.652-.435 1.521-.652 2.39-.652h20.87l-29.565 44.783 30.652 49.347z"/></svg>