<svg width="1000" height="1000" viewBox="0 0 1000 1000" xmlns="http://www.w3.org/2000/svg"><title>ineat-logo</title><path d="M540.084 844.726V588.608h-83.122v256.118c-24.894 12.236-41.35 41.35-41.35 70.464 0 45.57 37.553 83.122 83.122 83.122 45.57 0 83.123-37.13 83.123-83.122 0-29.114-16.878-58.228-41.773-70.464z"/><path d="M913.502 707.595c-29.114 0-58.228 16.456-70.464 41.35H706.329v-83.122h33.333c111.815 0 211.393-83.123 215.612-194.937 4.22-108.017-70.464-194.937-170.042-215.612C768.776 114.346 648.102 2.11 499.156 2.11h-24.894C324.895 14.346 208.86 151.477 208.86 305.063c0 12.237-12.237 29.114-29.114 33.334-83.123 12.236-145.148 91.139-136.709 178.48 8.439 86.92 86.92 149.368 174.262 149.368h73.84v83.122H154.43c-12.236-24.894-41.35-41.35-70.464-41.35-45.57 0-83.122 37.13-83.122 83.122 0 45.57 37.13 83.123 83.122 83.123 29.114 0 58.228-16.456 70.464-41.35h219.832v-243.46H216.456c-45.57 0-86.92-38.82-91.14-80.17-4.219-41.35 24.895-83.122 70.465-91.139 54.008-8.438 95.358-58.227 95.358-111.814 0-111.814 83.123-207.595 190.718-215.612h16.455c103.798 0 190.718 78.903 207.595 182.7l8.439 58.229 58.228 12.236c62.447 12.236 103.797 66.245 99.578 128.692-4.22 66.245-62.025 116.034-132.911 116.034H623.207v248.945h219.831c12.236 24.894 41.35 41.35 70.464 41.35 45.57 0 83.122-37.553 83.122-83.122 0-50.633-37.13-88.186-83.122-88.186z"/><ellipse cx="415.612" cy="413.924" rx="41.772" ry="41.772"/><path d="M539.662 372.152h83.966v83.966h-83.966z"/><path d="M539.662 372.152h83.966v83.966h-83.966z"/></svg>