<svg id="Calque_1" xmlns="http://www.w3.org/2000/svg" viewBox="0 0 1000 1000"><style>.st0{fill:#24272a}.st1{fill:none}.st2{fill:#eb1e54}</style><path class="st0" d="M69.8 879.9V860h12.7v-87.2H69.8V753h47.6v19.8h-12.7V860h12.7v19.8H69.8zM219.6 879.9V860h7.7c2.6 0 3.9-1.3 3.9-3.9V752.9h21.1l48.1 70.3c1.4 2.1 3 4.7 4.8 7.7 1.8 3 3.2 5.4 4.1 7.3l1.6 2.9h.4c-.8-7-1.3-13-1.3-17.9v-58.1c0-4.2 1-7.2 2.9-9.2 1.9-2 5-3 9.3-3h22.9v19.8h-7.7c-2.6 0-3.9 1.3-3.9 3.9v103.2h-20.9l-48.3-70.1c-1.4-2.1-3-4.7-4.8-7.7-1.8-3-3.2-5.4-4.1-7.3l-1.6-2.9h-.4c.8 7 1.3 13 1.3 17.9v57.9c0 4.3-1 7.4-2.9 9.3-1.9 1.9-5 2.9-9.3 2.9h-22.9zM458.3 867.7v-94.9h-11.6V753h76.7c8.1 0 12.2 4.1 12.2 12.2v19.3h-21.3v-7.7c0-2.6-1.3-3.9-3.9-3.9h-28.6V806h41.1v19.8h-41.1V856c0 2.6 1.3 3.9 3.9 3.9H515c2.6 0 3.9-1.3 3.9-3.9v-7.7h21.3v19.3c0 4.3-1 7.4-3 9.3-2 1.9-5 2.9-9.2 2.9h-57.6c-4.3 0-7.4-1-9.3-2.9-1.8-1.8-2.8-4.9-2.8-9.2zM635.3 879.9V860h2.9c2.9 0 4.7-1.3 5.5-3.9l37.7-103.2h24.5l37.5 103.2c.8 2.6 2.7 3.9 5.5 3.9h2.9v19.8h-13.9c-4.4 0-7.7-.7-9.7-2.1-2.1-1.4-3.8-4.2-5.3-8.2l-7.9-22.2h-42.9l-7.9 22.2c-1.4 4.1-3.2 6.8-5.2 8.2-2 1.4-5.2 2.1-9.7 2.1h-14zm42.2-51.9h32.2l-10.9-31.8-5-19h-.4c-1.8 8-3.5 14.3-5 19L677.5 828zM874.5 879.9V772.8H855c-2.6 0-3.9 1.3-3.9 3.9v7.7h-20.6v-20c0-4.2.8-7.1 2.5-8.8 1.7-1.7 4.6-2.6 8.9-2.6h88.5c4.3 0 7.3.9 8.9 2.6 1.7 1.7 2.5 4.7 2.5 8.8v20h-20.6v-7.7c0-2.6-1.3-3.9-3.9-3.9h-19.5v107.1h-23.3z"/><g><path class="st2" d="M530.7 606V453h-49.6v153c-14.9 7.4-24.8 24.8-24.8 42.2 0 27.3 22.3 49.6 49.6 49.6s49.6-22.3 49.6-49.6c0-17.4-9.9-34.8-24.8-42.2zm0 0"/><path class="st2" d="M753.9 524.1c-17.4 0-34.7 9.9-42.2 24.8h-81.9v-49.6h19.8c67 0 126.5-49.6 129-116.6 2.5-64.5-42.2-116.6-101.7-129-9.9-84.3-81.9-151.3-171.2-151.3H491c-89.3 7.4-158.8 89.3-158.8 181.1 0 7.4-7.4 17.4-17.4 19.8-49.5 7.5-86.8 54.6-81.8 106.7s52.1 89.3 104.2 89.3h44.6v49.6H300c-7.4-14.9-24.8-24.8-42.2-24.8-27.3 0-49.6 22.3-49.6 49.6s22.3 49.6 49.6 49.6c17.4 0 34.7-9.9 42.2-24.8h131.5V453h-94.3c-27.3 0-52.1-23.1-54.6-47.9-2.5-24.8 14.9-49.6 42.2-54.6 32.2-5 57-34.7 57-67 0-67 49.6-124 114.1-129h9.9c62 0 114.1 47.1 124 109.1l5 34.7 34.7 7.4c37.2 7.4 62 39.7 59.5 76.9-2.5 39.7-37.2 69.5-79.4 69.5h-69.5V601h131.5c7.4 14.9 24.8 24.8 42.2 24.8 27.3 0 49.6-22.3 49.6-49.6.1-29.8-22.2-52.1-49.5-52.1zm0 0"/></g><g><path class="st2" d="M530.7 606V453h-49.6v153c-14.9 7.4-24.8 24.8-24.8 42.2 0 27.3 22.3 49.6 49.6 49.6s49.6-22.3 49.6-49.6c0-17.4-9.9-34.8-24.8-42.2zm0 0"/><path class="st2" d="M753.9 524.1c-17.4 0-34.7 9.9-42.2 24.8h-81.9v-49.6h19.8c67 0 126.5-49.6 129-116.6 2.5-64.5-42.2-116.6-101.7-129-9.9-84.3-81.9-151.3-171.2-151.3H491c-89.3 7.4-158.8 89.3-158.8 181.1 0 7.4-7.4 17.4-17.4 19.8-49.5 7.5-86.8 54.6-81.8 106.7s52.1 89.3 104.2 89.3h44.6v49.6H300c-7.4-14.9-24.8-24.8-42.2-24.8-27.3 0-49.6 22.3-49.6 49.6s22.3 49.6 49.6 49.6c17.4 0 34.7-9.9 42.2-24.8h131.5V453h-94.3c-27.3 0-52.1-23.1-54.6-47.9-2.5-24.8 14.9-49.6 42.2-54.6 32.2-5 57-34.7 57-67 0-67 49.6-124 114.1-129h9.9c62 0 114.1 47.1 124 109.1l5 34.7 34.7 7.4c37.2 7.4 62 39.7 59.5 76.9-2.5 39.7-37.2 69.5-79.4 69.5h-69.5V601h131.5c7.4 14.9 24.8 24.8 42.2 24.8 27.3 0 49.6-22.3 49.6-49.6.1-29.8-22.2-52.1-49.5-52.1zm0 0"/></g><g><path class="st2" d="M530.7 606V453h-49.6v153c-14.9 7.4-24.8 24.8-24.8 42.2 0 27.3 22.3 49.6 49.6 49.6s49.6-22.3 49.6-49.6c0-17.4-9.9-34.8-24.8-42.2zm0 0"/><path class="st2" d="M753.9 524.1c-17.4 0-34.7 9.9-42.2 24.8h-81.9v-49.6h19.8c67 0 126.5-49.6 129-116.6 2.5-64.5-42.2-116.6-101.7-129-9.9-84.3-81.9-151.3-171.2-151.3H491c-89.3 7.4-158.8 89.3-158.8 181.1 0 7.4-7.4 17.4-17.4 19.8-49.5 7.5-86.8 54.6-81.8 106.7s52.1 89.3 104.2 89.3h44.6v49.6H300c-7.4-14.9-24.8-24.8-42.2-24.8-27.3 0-49.6 22.3-49.6 49.6s22.3 49.6 49.6 49.6c17.4 0 34.7-9.9 42.2-24.8h131.5V453h-94.3c-27.3 0-52.1-23.1-54.6-47.9-2.5-24.8 14.9-49.6 42.2-54.6 32.2-5 57-34.7 57-67 0-67 49.6-124 114.1-129h9.9c62 0 114.1 47.1 124 109.1l5 34.7 34.7 7.4c37.2 7.4 62 39.7 59.5 76.9-2.5 39.7-37.2 69.5-79.4 69.5h-69.5V601h131.5c7.4 14.9 24.8 24.8 42.2 24.8 27.3 0 49.6-22.3 49.6-49.6.1-29.8-22.2-52.1-49.5-52.1zm0 0"/><circle class="st2" cx="456.3" cy="348.5" r="25.1"/><path class="st2" d="M530.4 323.4h50.1v50.1h-50.1z"/><g><path class="st2" d="M530.4 323.4h50.1v50.1h-50.1z"/></g></g></svg>