<svg id="Calque_1" xmlns="http://www.w3.org/2000/svg" viewBox="0 0 1000 1000"><style>.st0{fill:#24272a}.st1{fill:none}.st2{fill:#eb1e54}</style><path d="M86.2 928.9v1.9H67.1V899h19.1v1.9H69.4v12.9h13.9v1.9H69.4V929h16.8zM124.4 899.1v31.8h-1.1c-.2 0-.4 0-.5-.1-.1-.1-.3-.2-.4-.3l-20.7-27.6c0 .4.1.9.1 1.3V931h-2v-31.8h1.1c.2 0 .4 0 .5.1.1.1.2.2.4.3l20.6 27.5c0-.4-.1-.9-.1-1.3v-26.7h2.1zM161.2 901H150v29.8h-2.3V901h-11.2v-2h24.7v2zM195.3 930.9h-2c-.3 0-.5 0-.6-.1-.2-.1-.3-.2-.5-.5L182 917.4c-.1-.2-.2-.3-.4-.4-.1-.1-.3-.2-.4-.3-.2-.1-.3-.1-.6-.1h-5V931h-2.3v-31.8h8.1c3.7 0 6.4.7 8.2 2.1 1.8 1.4 2.7 3.5 2.7 6.2 0 1.2-.2 2.3-.6 3.3s-1 1.9-1.8 2.6c-.8.8-1.7 1.4-2.9 1.9-1.1.5-2.4.8-3.8 1 .4.2.7.5 1 .9l11.1 13.7zm-14.1-16.1c1.4 0 2.7-.2 3.8-.5 1.1-.3 2.1-.8 2.8-1.5.8-.6 1.4-1.4 1.8-2.3.4-.9.6-1.9.6-3 0-2.3-.7-3.9-2.2-5s-3.6-1.6-6.5-1.6h-5.8v13.9h5.5zM226.5 928.9v1.9h-19.1V899h19.1v1.9h-16.7v12.9h13.9v1.9h-13.9V929h16.7zM248.4 899.1c3.7 0 6.5.8 8.4 2.5 1.9 1.6 2.8 4 2.8 7 0 1.4-.3 2.7-.8 3.8-.5 1.2-1.3 2.2-2.2 3-1 .8-2.2 1.5-3.6 2s-3 .7-4.7.7h-5.9v12.8h-2.3v-31.8h8.3zm0 17.1c1.4 0 2.6-.2 3.8-.6 1.1-.4 2-.9 2.8-1.6.8-.7 1.4-1.5 1.8-2.4.4-.9.6-2 .6-3.1 0-2.4-.7-4.3-2.2-5.6-1.5-1.3-3.7-2-6.7-2h-5.9v15.3h5.8zM294.8 930.9h-2c-.3 0-.5 0-.6-.1-.2-.1-.3-.2-.5-.5l-10.2-12.9c-.1-.2-.2-.3-.4-.4-.1-.1-.3-.2-.4-.3-.2-.1-.3-.1-.6-.1h-5V931h-2.3v-31.8h8.1c3.7 0 6.4.7 8.2 2.1s2.7 3.5 2.7 6.2c0 1.2-.2 2.3-.6 3.3s-1 1.9-1.8 2.6c-.8.8-1.7 1.4-2.9 1.9-1.1.5-2.4.8-3.8 1 .4.2.7.5 1 .9l11.1 13.7zm-14.1-16.1c1.4 0 2.7-.2 3.8-.5 1.1-.3 2.1-.8 2.8-1.5.8-.6 1.4-1.4 1.8-2.3.4-.9.6-1.9.6-3 0-2.3-.7-3.9-2.2-5s-3.6-1.6-6.5-1.6h-5.8v13.9h5.5zM309.2 930.9h-2.3v-31.8h2.3v31.8zM340.8 902.9c-.1.3-.3.4-.6.4-.2 0-.4-.1-.8-.4-.3-.3-.7-.6-1.2-.9-.5-.3-1.2-.7-2-.9-.8-.3-1.8-.4-2.9-.4-1.2 0-2.2.2-3 .5-.9.3-1.6.8-2.2 1.3-.6.6-1 1.2-1.3 2-.3.7-.5 1.5-.5 2.4 0 1.1.2 2 .7 2.7.5.7 1.1 1.3 1.8 1.8s1.6.9 2.6 1.2c1 .3 1.9.7 2.9 1 1 .3 2 .7 2.9 1.1 1 .4 1.8.9 2.6 1.5.7.6 1.4 1.3 1.8 2.2.5.9.7 2 .7 3.3 0 1.3-.2 2.6-.7 3.8-.5 1.2-1.1 2.2-2 3.1-.9.9-1.9 1.6-3.2 2.1-1.3.5-2.7.8-4.3.8-2.1 0-3.9-.4-5.4-1.1-1.5-.7-2.8-1.8-4-3l.6-1c.2-.2.4-.3.6-.3.1 0 .3.1.5.3.2.2.5.4.8.7.3.3.7.5 1.1.9.4.3.9.6 1.5.9.6.3 1.2.5 1.9.7s1.5.3 2.4.3c1.3 0 2.4-.2 3.4-.6 1-.4 1.8-.9 2.5-1.6.7-.7 1.2-1.4 1.6-2.3.4-.9.5-1.9.5-2.9 0-1.1-.2-2-.7-2.8-.5-.7-1.1-1.3-1.8-1.8s-1.6-.9-2.6-1.2c-1-.3-1.9-.7-2.9-1-1-.3-2-.7-2.9-1.1-1-.4-1.8-.9-2.6-1.5-.7-.6-1.4-1.4-1.8-2.3-.5-.9-.7-2-.7-3.4 0-1.1.2-2.1.6-3.1.4-1 1-1.9 1.8-2.6.8-.8 1.7-1.4 2.9-1.8 1.1-.5 2.5-.7 3.9-.7 1.6 0 3.1.3 4.4.8 1.3.5 2.5 1.3 3.6 2.4l-.5.5zM375.3 928.9v1.9h-19.1V899h19.1v1.9h-16.7v12.9h13.9v1.9h-13.9V929h16.7zM434.7 914.9c0 2.5-.4 4.7-1.1 6.6-.7 2-1.8 3.6-3.1 5s-2.9 2.4-4.8 3.2c-1.9.7-3.9 1.1-6.2 1.1h-11.6V899h11.6c2.2 0 4.3.4 6.2 1.1 1.9.7 3.5 1.8 4.8 3.2 1.3 1.4 2.4 3 3.1 5 .7 2 1.1 4.2 1.1 6.6zm-2.4 0c0-2.2-.3-4.2-.9-5.9-.6-1.7-1.5-3.2-2.6-4.4-1.1-1.2-2.5-2.1-4-2.7-1.6-.6-3.3-.9-5.2-.9h-9.3v28h9.3c1.9 0 3.6-.3 5.2-.9 1.6-.6 2.9-1.5 4-2.7 1.1-1.2 2-2.7 2.6-4.4.6-1.8.9-3.8.9-6.1zM467.9 928.9v1.9h-19.1V899h19.1v1.9h-16.7v12.9h13.9v1.9h-13.9V929h16.7zM516 902.9c-.1.3-.3.4-.6.4-.2 0-.4-.1-.8-.4-.3-.3-.7-.6-1.2-.9-.5-.3-1.2-.7-2-.9-.8-.3-1.8-.4-2.9-.4-1.2 0-2.2.2-3 .5-.9.3-1.6.8-2.2 1.3-.6.6-1 1.2-1.3 2-.3.7-.5 1.5-.5 2.4 0 1.1.2 2 .7 2.7.5.7 1.1 1.3 1.8 1.8s1.6.9 2.6 1.2c1 .3 1.9.7 2.9 1 1 .3 2 .7 2.9 1.1 1 .4 1.8.9 2.6 1.5.7.6 1.4 1.3 1.8 2.2.5.9.7 2 .7 3.3 0 1.3-.2 2.6-.7 3.8-.5 1.2-1.1 2.2-2 3.1-.9.9-1.9 1.6-3.2 2.1-1.3.5-2.7.8-4.3.8-2.1 0-3.9-.4-5.4-1.1-1.5-.7-2.8-1.8-4-3l.6-1c.2-.2.4-.3.6-.3.1 0 .3.1.5.3.2.2.5.4.8.7.3.3.7.5 1.1.9.4.3.9.6 1.5.9.6.3 1.2.5 1.9.7s1.5.3 2.4.3c1.3 0 2.4-.2 3.4-.6 1-.4 1.8-.9 2.5-1.6.7-.7 1.2-1.4 1.6-2.3.4-.9.5-1.9.5-2.9 0-1.1-.2-2-.7-2.8-.5-.7-1.1-1.3-1.8-1.8s-1.6-.9-2.6-1.2c-1-.3-1.9-.7-2.9-1-1-.3-2-.7-2.9-1.1-1-.4-1.8-.9-2.6-1.5-.7-.6-1.4-1.4-1.8-2.3-.5-.9-.7-2-.7-3.4 0-1.1.2-2.1.6-3.1.4-1 1-1.9 1.8-2.6.8-.8 1.7-1.4 2.9-1.8 1.1-.5 2.5-.7 3.9-.7 1.6 0 3.1.3 4.4.8 1.3.5 2.5 1.3 3.6 2.4l-.5.5zM550.5 928.9v1.9h-19.1V899h19.1v1.9h-16.7v12.9h13.9v1.9h-13.9V929h16.7zM586.1 930.9h-2c-.3 0-.5 0-.6-.1-.2-.1-.3-.2-.5-.5l-10.2-12.9c-.1-.2-.2-.3-.4-.4-.1-.1-.3-.2-.4-.3-.2-.1-.3-.1-.6-.1h-5V931h-2.3v-31.8h8.1c3.7 0 6.4.7 8.2 2.1 1.8 1.4 2.7 3.5 2.7 6.2 0 1.2-.2 2.3-.6 3.3s-1 1.9-1.8 2.6c-.8.8-1.7 1.4-2.9 1.9-1.1.5-2.4.8-3.8 1 .4.2.7.5 1 .9l11.1 13.7zM572 914.8c1.4 0 2.7-.2 3.8-.5 1.1-.3 2.1-.8 2.8-1.5.8-.6 1.4-1.4 1.8-2.3.4-.9.6-1.9.6-3 0-2.3-.7-3.9-2.2-5s-3.6-1.6-6.5-1.6h-5.8v13.9h5.5zM621.8 899.1l-13.1 31.8h-2l-13.1-31.8h1.8c.2 0 .4.1.5.2.1.1.2.3.3.4L607 926c.1.3.2.7.4 1.1.1.4.2.8.3 1.1.1-.4.2-.8.3-1.1.1-.4.2-.7.4-1.1l10.8-26.4c.1-.2.2-.3.3-.4.1-.1.3-.2.5-.2h1.8zM636.1 930.9h-2.3v-31.8h2.3v31.8zM675.2 925.5c.1 0 .3.1.4.2l.9 1c-.7.7-1.4 1.3-2.1 1.9-.8.6-1.6 1-2.5 1.4-.9.4-1.9.7-3 .9-1.1.2-2.3.3-3.6.3-2.2 0-4.2-.4-6.1-1.2-1.8-.8-3.4-1.9-4.7-3.3s-2.3-3.1-3.1-5.1-1.1-4.2-1.1-6.7c0-2.4.4-4.6 1.1-6.6.7-2 1.8-3.7 3.1-5.1 1.3-1.4 3-2.5 4.9-3.3 1.9-.8 4-1.2 6.2-1.2s4.1.3 5.8 1c1.7.7 3.2 1.6 4.6 2.9l-.7 1c-.1.2-.3.3-.6.3-.2 0-.5-.2-.9-.5s-1-.7-1.7-1.1c-.7-.4-1.6-.8-2.7-1.1-1.1-.3-2.4-.5-3.9-.5-1.9 0-3.7.3-5.3 1-1.6.7-3 1.6-4.1 2.8-1.1 1.2-2 2.7-2.7 4.5-.6 1.8-1 3.8-1 6s.3 4.3 1 6c.7 1.8 1.5 3.3 2.7 4.5 1.1 1.2 2.5 2.2 4 2.8 1.6.7 3.2 1 5 1 1.1 0 2.2-.1 3-.2.9-.2 1.7-.4 2.5-.7.7-.3 1.4-.7 2.1-1.1.6-.4 1.3-.9 1.9-1.5.1-.1.1-.1.2-.1s.3-.2.4-.2zM708.5 928.9v1.9h-19.1V899h19.1v1.9h-16.7v12.9h13.9v1.9h-13.9V929h16.7zM767.9 914.9c0 2.5-.4 4.7-1.1 6.6-.7 2-1.8 3.6-3.1 5s-2.9 2.4-4.8 3.2c-1.9.7-3.9 1.1-6.2 1.1h-11.6V899h11.6c2.2 0 4.3.4 6.2 1.1 1.9.7 3.5 1.8 4.8 3.2 1.3 1.4 2.4 3 3.1 5 .7 2 1.1 4.2 1.1 6.6zm-2.4 0c0-2.2-.3-4.2-.9-5.9-.6-1.7-1.5-3.2-2.6-4.4-1.1-1.2-2.5-2.1-4-2.7-1.6-.6-3.3-.9-5.2-.9h-9.3v28h9.3c1.9 0 3.6-.3 5.2-.9 1.6-.6 2.9-1.5 4-2.7 1.1-1.2 2-2.7 2.6-4.4.6-1.8.9-3.8.9-6.1zM784.3 930.9H782v-31.8h2.3v31.8zM825.9 916.4v11.3c-1.6 1.1-3.3 2-5.1 2.6-1.8.6-3.8.9-6.1.9-2.5 0-4.8-.4-6.8-1.2-2-.8-3.7-1.9-5.1-3.3-1.4-1.4-2.5-3.1-3.3-5.1-.8-2-1.1-4.2-1.1-6.7s.4-4.7 1.1-6.7c.7-2 1.8-3.7 3.2-5.1 1.4-1.4 3.1-2.5 5-3.3 2-.8 4.2-1.2 6.6-1.2 1.2 0 2.3.1 3.4.2 1 .2 2 .4 2.9.7.9.3 1.7.7 2.5 1.2s1.5 1 2.2 1.6l-.6 1c-.2.4-.5.4-.9.2-.2-.1-.5-.3-1-.6-.4-.3-1-.7-1.7-1-.7-.4-1.6-.7-2.7-1-1.1-.3-2.4-.4-4-.4-2.1 0-3.9.3-5.6 1-1.7.7-3.1 1.6-4.3 2.8-1.2 1.2-2.1 2.7-2.7 4.5-.6 1.8-1 3.8-1 6s.3 4.2 1 6 1.6 3.3 2.8 4.5c1.2 1.2 2.7 2.2 4.4 2.9 1.7.7 3.7 1 5.8 1 .9 0 1.8-.1 2.6-.2s1.6-.3 2.3-.5c.7-.2 1.4-.5 2.1-.8.7-.3 1.4-.7 2.1-1.1V918h-6.1c-.2 0-.3-.1-.4-.2-.1-.1-.2-.2-.2-.4v-1.3h8.7zM842.6 930.9h-2.3v-31.8h2.3v31.8zM879.4 901h-11.2v29.8h-2.3V901h-11.2v-2h24.7v2zM912.5 930.9h-1.8c-.2 0-.4-.1-.5-.2-.1-.1-.2-.3-.3-.4l-3.7-9.2h-15.6l-3.7 9.2c-.1.2-.2.3-.3.4-.2.1-.3.2-.5.2h-1.8l13-31.8h2.3l12.9 31.8zm-7-11.6l-6.5-16.1c-.2-.5-.4-1.2-.7-1.9-.1.4-.2.7-.3 1l-.3.9-6.5 16h14.3zM941.9 928.9v2h-17.4v-31.8h2.3v29.8h15.1z"/><g><path class="st0" d="M68.5 845.5v-19.8h12.7v-87.2H68.5v-19.8H116v19.8h-12.7v87.2H116v19.8H68.5zM218.3 845.5v-19.8h7.7c2.6 0 3.9-1.3 3.9-3.9V718.6H251l48.1 70.3c1.4 2.1 3 4.7 4.8 7.7 1.8 3 3.2 5.4 4.1 7.3l1.6 2.9h.4c-.8-7-1.3-13-1.3-17.9v-58.1c0-4.2 1-7.2 2.9-9.2 1.9-2 5-3 9.3-3h22.9v19.8h-7.7c-2.6 0-3.9 1.3-3.9 3.9v103.2h-20.9L263 775.4c-1.4-2.1-3-4.7-4.8-7.7-1.8-3-3.2-5.4-4.1-7.3l-1.6-2.9h-.4c.8 7 1.3 13 1.3 17.9v57.9c0 4.3-1 7.4-2.9 9.3-1.9 1.9-5 2.9-9.3 2.9h-22.9zM456.9 833.4v-94.9h-11.6v-19.8H522c8.1 0 12.2 4.1 12.2 12.2V750h-21.3v-7.7c0-2.6-1.3-3.9-3.9-3.9h-28.6v33.3h41.1v19.8h-41.1v30.2c0 2.6 1.3 3.9 3.9 3.9h29.3c2.6 0 3.9-1.3 3.9-3.9V814h21.3v19.3c0 4.3-1 7.4-3 9.3-2 1.9-5 2.9-9.2 2.9H469c-4.3 0-7.4-1-9.3-2.9-1.8-1.8-2.8-5-2.8-9.2zM633.9 845.5v-19.8h2.9c2.9 0 4.7-1.3 5.5-3.9L680 718.6h24.5L742 821.8c.8 2.6 2.7 3.9 5.5 3.9h2.9v19.8h-13.9c-4.4 0-7.7-.7-9.7-2.1-2.1-1.4-3.8-4.2-5.3-8.2l-7.9-22.2h-42.9l-7.9 22.2c-1.4 4.1-3.2 6.8-5.2 8.2-2 1.4-5.2 2.1-9.7 2.1h-14zm42.2-51.8h32.2l-10.9-31.8-5-19h-.4c-1.8 8-3.5 14.3-5 19l-10.9 31.8zM873.1 845.5V738.4h-19.5c-2.6 0-3.9 1.3-3.9 3.9v7.7h-20.6v-20c0-4.2.8-7.1 2.5-8.8 1.7-1.7 4.6-2.6 8.9-2.6H929c4.3 0 7.3.9 8.9 2.6 1.7 1.7 2.5 4.7 2.5 8.8v20H920v-7.7c0-2.6-1.3-3.9-3.9-3.9h-19.5v107.1h-23.5z"/></g><g><path class="st2" d="M529.3 571.6v-153h-49.6v153c-14.9 7.4-24.8 24.8-24.8 42.2 0 27.3 22.3 49.6 49.6 49.6s49.6-22.3 49.6-49.6c0-17.4-9.9-34.7-24.8-42.2zm0 0"/><path class="st2" d="M752.6 489.8c-17.4 0-34.7 9.9-42.2 24.8h-81.9V465h19.8c67 0 126.5-49.6 129-116.6 2.5-64.5-42.2-116.6-101.7-129-9.9-84.3-81.9-151.3-171.2-151.3h-14.9c-89.3 7.4-158.8 89.3-158.8 181.1 0 7.4-7.4 17.4-17.4 19.8-49.6 7.4-86.8 54.6-81.9 106.7 5 52.1 52.1 89.3 104.2 89.3h44.6v49.6h-81.9c-7.4-14.9-24.8-24.8-42.2-24.8-27.3 0-49.6 22.3-49.6 49.6s22.3 49.6 49.6 49.6c17.4 0 34.7-9.9 42.2-24.8h131.5V418.6h-94.3c-27.3 0-52.1-23.1-54.6-47.9-2.5-24.8 14.9-49.6 42.2-54.6 32.2-5 57-34.7 57-67 0-67 49.6-124 114.1-129h9.9c62 0 114.1 47.1 124 109.1l5 34.7 34.7 7.4c37.2 7.4 62 39.7 59.5 76.9-2.5 39.7-37.2 69.5-79.4 69.5h-69.5v148.8h131.5c7.4 14.9 24.8 24.8 42.2 24.8 27.3 0 49.6-22.3 49.6-49.6.5-29.6-21.9-51.9-49.1-51.9zm0 0"/></g><g><path class="st2" d="M529.3 571.6v-153h-49.6v153c-14.9 7.4-24.8 24.8-24.8 42.2 0 27.3 22.3 49.6 49.6 49.6s49.6-22.3 49.6-49.6c0-17.4-9.9-34.7-24.8-42.2zm0 0"/><path class="st2" d="M752.6 489.8c-17.4 0-34.7 9.9-42.2 24.8h-81.9V465h19.8c67 0 126.5-49.6 129-116.6 2.5-64.5-42.2-116.6-101.7-129-9.9-84.3-81.9-151.3-171.2-151.3h-14.9c-89.3 7.4-158.8 89.3-158.8 181.1 0 7.4-7.4 17.4-17.4 19.8-49.6 7.4-86.8 54.6-81.9 106.7 5 52.1 52.1 89.3 104.2 89.3h44.6v49.6h-81.9c-7.4-14.9-24.8-24.8-42.2-24.8-27.3 0-49.6 22.3-49.6 49.6s22.3 49.6 49.6 49.6c17.4 0 34.7-9.9 42.2-24.8h131.5V418.6h-94.3c-27.3 0-52.1-23.1-54.6-47.9-2.5-24.8 14.9-49.6 42.2-54.6 32.2-5 57-34.7 57-67 0-67 49.6-124 114.1-129h9.9c62 0 114.1 47.1 124 109.1l5 34.7 34.7 7.4c37.2 7.4 62 39.7 59.5 76.9-2.5 39.7-37.2 69.5-79.4 69.5h-69.5v148.8h131.5c7.4 14.9 24.8 24.8 42.2 24.8 27.3 0 49.6-22.3 49.6-49.6.5-29.6-21.9-51.9-49.1-51.9zm0 0"/></g><g><path class="st2" d="M529.3 571.6v-153h-49.6v153c-14.9 7.4-24.8 24.8-24.8 42.2 0 27.3 22.3 49.6 49.6 49.6s49.6-22.3 49.6-49.6c0-17.4-9.9-34.7-24.8-42.2zm0 0"/><path class="st2" d="M752.6 489.8c-17.4 0-34.7 9.9-42.2 24.8h-81.9V465h19.8c67 0 126.5-49.6 129-116.6 2.5-64.5-42.2-116.6-101.7-129-9.9-84.3-81.9-151.3-171.2-151.3h-14.9c-89.3 7.4-158.8 89.3-158.8 181.1 0 7.4-7.4 17.4-17.4 19.8-49.6 7.4-86.8 54.6-81.9 106.7 5 52.1 52.1 89.3 104.2 89.3h44.6v49.6h-81.9c-7.4-14.9-24.8-24.8-42.2-24.8-27.3 0-49.6 22.3-49.6 49.6s22.3 49.6 49.6 49.6c17.4 0 34.7-9.9 42.2-24.8h131.5V418.6h-94.3c-27.3 0-52.1-23.1-54.6-47.9-2.5-24.8 14.9-49.6 42.2-54.6 32.2-5 57-34.7 57-67 0-67 49.6-124 114.1-129h9.9c62 0 114.1 47.1 124 109.1l5 34.7 34.7 7.4c37.2 7.4 62 39.7 59.5 76.9-2.5 39.7-37.2 69.5-79.4 69.5h-69.5v148.8h131.5c7.4 14.9 24.8 24.8 42.2 24.8 27.3 0 49.6-22.3 49.6-49.6.5-29.6-21.9-51.9-49.1-51.9zm0 0"/><circle class="st2" cx="454.9" cy="314.1" r="25.1"/><path class="st2" d="M529.1 289.1h50.1v50.1h-50.1z"/><g><path class="st2" d="M529.1 289.1h50.1v50.1h-50.1z"/></g></g></svg>