<svg xmlns="http://www.w3.org/2000/svg" viewBox="0 0 1000 1000"><path d="M541.1 793V574.2h-70.9V793c-21.3 10.6-35.5 35.5-35.5 60.3 0 39 31.9 70.9 70.9 70.9 39 0 70.9-31.9 70.9-70.9.1-24.9-14.1-49.7-35.4-60.3zm0 0"/><path d="M860.3 675.9c-24.8 0-49.7 14.2-60.3 35.5H683v-70.9h28.4c95.8 0 180.9-70.9 184.4-166.7 3.5-92.2-60.3-166.7-145.4-184.4C736.2 168.8 633.4 73 505.7 73h-21.3c-127.7 10.6-227 127.7-227 258.9 0 10.6-10.6 24.8-24.8 28.4-70.9 10.6-124.1 78-117 152.5 7.1 74.5 74.5 127.7 149 127.7h63.8v70.9h-117c-10.6-21.3-35.5-35.5-60.3-35.5-39 0-70.9 31.9-70.9 70.9 0 39 31.9 70.9 70.9 70.9 24.8 0 49.6-14.2 60.3-35.5h188v-208H264.5c-39 0-74.5-33-78-68.5s21.3-70.9 60.3-78c46.1-7.1 81.6-49.6 81.6-95.8 0-95.8 70.9-177.3 163.1-184.4h14.2c88.7 0 163.1 67.4 177.3 156.1l7.1 49.6 49.6 10.6c53.2 10.6 88.7 56.7 85.1 109.9-3.5 56.7-53.2 99.3-113.5 99.3H612v212.8h188c10.6 21.3 35.5 35.5 60.3 35.5 39 0 70.9-31.9 70.9-70.9.1-42.6-31.8-74.5-70.9-74.5zm0 0"/><circle cx="434.7" cy="424.8" r="35.8"/><path d="M540.8 389h71.7v71.7h-71.7z"/><g><path d="M540.8 389h71.7v71.7h-71.7z"/></g></svg>